<svg width="123" height="36" viewBox="0 0 123 36" fill="none" xmlns="http://www.w3.org/2000/svg">
<g clip-path="url(#clip0_739_2269)">
<path d="M121.423 31.7487C121.423 33.6536 119.88 35.1964 117.972 35.1964H5.02819C3.12073 35.1964 1.57251 33.6536 1.57251 31.7487V4.25483C1.57251 2.35097 3.1208 0.802673 5.02819 0.802673H117.971C119.88 0.802673 121.422 2.35097 121.422 4.25483L121.423 31.7487Z" fill="white"/>
<path d="M117.972 35.9988H5.02815C2.6814 35.9988 0.77124 34.0932 0.77124 31.7491V4.2561C0.77124 1.91026 2.6814 0.00189209 5.02815 0.00189209H117.971C120.315 0.00189209 122.228 1.91026 122.228 4.2561V31.7491C122.23 34.0932 120.317 35.9988 117.972 35.9988Z" fill="#A6A6A6"/>
<path d="M121.423 31.7487C121.423 33.6536 119.88 35.1964 117.972 35.1964H5.02819C3.12073 35.1964 1.57251 33.6536 1.57251 31.7487V4.25483C1.57251 2.35097 3.1208 0.802673 5.02819 0.802673H117.971C119.88 0.802673 121.422 2.35097 121.422 4.25483L121.423 31.7487Z" fill="black"/>
<path d="M27.8915 17.8105C27.8654 14.9093 30.267 13.4978 30.3768 13.4321C29.0167 11.449 26.9086 11.1781 26.1677 11.1565C24.3971 10.9701 22.6796 12.216 21.7776 12.216C20.8576 12.216 19.4686 11.1745 17.9717 11.2051C16.0453 11.2348 14.2432 12.3501 13.2548 14.082C11.2151 17.6134 12.7363 22.8029 14.6906 25.6573C15.6681 27.0562 16.8105 28.6162 18.3056 28.5613C19.7684 28.5018 20.3148 27.6296 22.08 27.6296C23.829 27.6296 24.3422 28.5613 25.867 28.5261C27.437 28.5018 28.4253 27.1219 29.3687 25.7113C30.4984 24.1099 30.952 22.531 30.9701 22.45C30.934 22.4374 27.9221 21.287 27.8915 17.8105ZM25.0109 9.2787C25.7976 8.29481 26.336 6.95626 26.1865 5.5979C25.0478 5.64831 23.6238 6.38555 22.8036 7.34783C22.0781 8.19579 21.43 9.58566 21.5974 10.8927C22.8766 10.9881 24.19 10.2473 25.0109 9.2787Z" fill="white"/>
<path d="M117.972 0.00152588H57.4758L81.1711 35.9985H117.972C120.316 35.9985 122.229 34.0928 122.229 31.7461V4.25574C122.23 1.90989 120.317 0.00152588 117.972 0.00152588Z" fill="url(#paint0_linear_739_2269)"/>
<path d="M49.079 28.3605H47.0347L45.9149 24.8417H42.0225L40.9558 28.3605H38.9656L42.8228 16.381H45.2047L49.079 28.3605ZM45.5774 23.3655L44.5647 20.2374C44.4576 19.9178 44.256 19.1653 43.9606 17.9806H43.9247C43.8059 18.4901 43.6159 19.2427 43.3558 20.2374L42.3602 23.3655H45.5774ZM58.9792 23.9353C58.9792 25.4044 58.5804 26.5656 57.7819 27.4181C57.0672 28.1769 56.1787 28.5559 55.1192 28.5559C53.975 28.5559 53.1523 28.1481 52.6527 27.3308V31.8631H50.7335V22.5616C50.7335 21.6389 50.7093 20.6929 50.6625 19.7225H52.3503L52.4574 21.0916H52.4934C53.1334 20.06 54.1047 19.5442 55.4081 19.5442C56.4271 19.5442 57.2778 19.9465 57.9583 20.7522C58.6379 21.5597 58.9792 22.6201 58.9792 23.9353ZM57.0239 24.0055C57.0239 23.1647 56.8349 22.4716 56.455 21.9252C56.04 21.3572 55.4828 21.0728 54.7843 21.0728C54.3108 21.0728 53.8805 21.2312 53.4962 21.5435C53.1109 21.8586 52.8588 22.27 52.741 22.7795C52.6816 23.0171 52.6519 23.2106 52.6519 23.3637V24.8048C52.6519 25.4323 52.8445 25.9625 53.2298 26.3964C53.615 26.8285 54.1155 27.0454 54.7313 27.0454C55.4542 27.0454 56.0168 26.7655 56.4191 26.21C56.8223 25.6528 57.0239 24.9183 57.0239 24.0055ZM68.9143 23.9353C68.9143 25.4044 68.5155 26.5656 67.7171 27.4181C67.0014 28.1769 66.1139 28.5559 65.0535 28.5559C63.9093 28.5559 63.0866 28.1481 62.587 27.3308V31.8631H60.6678V22.5616C60.6678 21.6389 60.6435 20.6929 60.5967 19.7225H62.2845L62.3916 21.0916H62.4277C63.0668 20.06 64.0381 19.5442 65.3423 19.5442C66.3604 19.5442 67.2111 19.9465 67.8935 20.7522C68.5723 21.5597 68.9143 22.6201 68.9143 23.9353ZM66.9582 24.0055C66.9582 23.1647 66.7684 22.4716 66.3884 21.9252C65.9734 21.3572 65.418 21.0728 64.7195 21.0728C64.246 21.0728 63.8157 21.2312 63.4295 21.5435C63.0443 21.8586 62.7932 22.27 62.6752 22.7795C62.6167 23.0171 62.5852 23.2106 62.5852 23.3637V24.8048C62.5852 25.4323 62.7787 25.9625 63.1622 26.3964C63.5475 26.8276 64.048 27.0454 64.6655 27.0454C65.3891 27.0454 65.9518 26.7655 66.3533 26.21C66.7566 25.6528 66.9582 24.9183 66.9582 24.0055ZM80.0224 25.0002C80.0224 26.0201 79.6659 26.8491 78.9576 27.4891C78.178 28.1877 77.0897 28.5378 75.6944 28.5378C74.4053 28.5378 73.3719 28.2894 72.5924 27.7916L73.0362 26.192C73.8778 26.6907 74.8023 26.9391 75.8087 26.9391C76.5324 26.9391 77.0951 26.7753 77.4965 26.4503C77.8988 26.1245 78.1023 25.6888 78.1023 25.1451C78.1023 24.6582 77.934 24.2503 77.6036 23.9182C77.2715 23.587 76.7224 23.2782 75.951 22.9947C73.8535 22.2124 72.8039 21.0683 72.8039 19.5632C72.8039 18.5802 73.1748 17.7755 73.9148 17.1463C74.6548 16.5179 75.636 16.2039 76.8566 16.2039C77.9467 16.2039 78.855 16.3938 79.576 16.7728L79.0944 18.3372C78.4157 17.9699 77.6496 17.7863 76.7926 17.7863C76.1157 17.7863 75.5846 17.9528 75.2047 18.2841C74.8851 18.5802 74.7231 18.9413 74.7231 19.3697C74.7231 19.8423 74.9077 20.2348 75.2749 20.5427C75.5936 20.8262 76.1751 21.135 77.0158 21.4663C78.0474 21.8821 78.8053 22.3664 79.2906 22.9227C79.7794 23.4789 80.0224 24.1729 80.0224 25.0002ZM86.384 21.1627H84.2685V25.3566C84.2685 26.4233 84.6413 26.9553 85.3884 26.9553C85.7313 26.9553 86.0158 26.9265 86.2409 26.8662L86.2939 28.3236C85.9159 28.465 85.418 28.536 84.8014 28.536C84.0435 28.536 83.4512 28.3047 83.0236 27.842C82.5978 27.3793 82.3836 26.6043 82.3836 25.5133V21.1591H81.1233V19.7189H82.3836V18.1373L84.2685 17.5684V19.7189H86.384V21.1627ZM95.9095 23.9704C95.9095 25.2981 95.5297 26.3882 94.7717 27.2407C93.9787 28.1184 92.9237 28.5558 91.6085 28.5558C90.3393 28.5558 89.3302 28.1355 88.5776 27.2956C87.8251 26.4539 87.4488 25.3935 87.4488 24.1144C87.4488 22.7758 87.8377 21.6794 88.6128 20.827C89.3896 19.9736 90.4357 19.547 91.7508 19.547C93.0182 19.547 94.0364 19.9682 94.8068 20.809C95.5433 21.6245 95.9095 22.6777 95.9095 23.9704ZM93.9202 24.0145C93.9202 23.2232 93.7492 22.5444 93.4062 21.9764C93.0038 21.2905 92.4277 20.9476 91.6814 20.9476C90.9127 20.9476 90.3232 21.2905 89.9216 21.9764C89.5777 22.5444 89.4067 23.2349 89.4067 24.0504C89.4067 24.8426 89.5777 25.5231 89.9216 26.0894C90.3366 26.7753 90.9154 27.1183 91.6652 27.1183C92.3989 27.1183 92.9741 26.7681 93.39 26.0723C93.7429 25.4908 93.9202 24.8075 93.9202 24.0145ZM102.151 21.4103C101.961 21.3751 101.757 21.3571 101.546 21.3571C100.87 21.3571 100.348 21.611 99.9812 22.1223C99.6625 22.5723 99.5022 23.1412 99.5022 23.8281V28.3604H97.583V22.4428C97.583 21.4481 97.5641 20.5407 97.5272 19.7234H99.1989L99.2691 21.376H99.3222C99.5257 20.8081 99.8443 20.3498 100.282 20.0069C100.709 19.6982 101.171 19.5442 101.669 19.5442C101.846 19.5442 102.007 19.5568 102.149 19.5793L102.151 21.4103ZM110.734 23.6328C110.734 23.9767 110.711 24.2665 110.663 24.5033H104.906C104.927 25.3566 105.207 26.0102 105.741 26.4602C106.226 26.8618 106.854 27.0634 107.624 27.0634C108.477 27.0634 109.255 26.9283 109.954 26.6556L110.255 27.9869C109.437 28.3434 108.472 28.5207 107.359 28.5207C106.019 28.5207 104.968 28.1264 104.203 27.3397C103.439 26.5521 103.057 25.4935 103.057 24.1675C103.057 22.8658 103.413 21.7812 104.125 20.9161C104.87 19.9925 105.877 19.5307 107.145 19.5307C108.39 19.5307 109.332 19.9925 109.972 20.9161C110.479 21.6479 110.734 22.5553 110.734 23.6328ZM108.904 23.135C108.917 22.5652 108.791 22.0746 108.531 21.6596C108.199 21.1249 107.687 20.8585 107.002 20.8585C106.375 20.8585 105.864 21.1186 105.475 21.6407C105.155 22.0557 104.965 22.5544 104.907 23.1332L108.904 23.135Z" fill="white"/>
<path d="M44.6519 12.0935H43.6463L43.0963 10.3643H41.1835L40.6587 12.0935H39.6802L41.5759 6.20549H42.7462L44.6519 12.0935ZM42.9307 9.63875L42.4329 8.10125C42.3807 7.94372 42.2844 7.57735 42.1358 6.99224H42.1178C42.0566 7.24519 41.9693 7.61246 41.8379 8.10125L41.3491 9.63875H42.9307ZM49.3921 7.8483L47.7844 12.0935H46.8671L45.3116 7.8483H46.3252L47.0508 10.0933C47.1732 10.4687 47.2776 10.827 47.3559 11.1672H47.382C47.4523 10.8621 47.5567 10.5038 47.6872 10.0933L48.4037 7.8483H49.3921ZM52.8146 12.0935L52.7444 11.6046H52.7182C52.4301 11.998 52.0106 12.1898 51.4778 12.1898C50.718 12.1898 50.1761 11.6569 50.1761 10.9403C50.1761 9.89252 51.0844 9.35062 52.657 9.35062V9.2723C52.657 8.71329 52.3599 8.43334 51.7748 8.43334C51.3552 8.43334 50.9881 8.53866 50.6658 8.7484L50.474 8.12818C50.8674 7.88333 51.3562 7.76091 51.9332 7.76091C53.0422 7.76091 53.6021 8.34602 53.6021 9.51715V11.0807C53.6021 11.5092 53.6201 11.8414 53.6633 12.0943L52.8146 12.0935ZM52.6831 9.97901C51.6345 9.97901 51.1105 10.2329 51.1105 10.8351C51.1105 11.2807 51.3815 11.4985 51.7569 11.4985C52.2375 11.4985 52.6831 11.1321 52.6831 10.6343V9.97901ZM55.7032 7.14887C55.3891 7.14887 55.1442 6.90402 55.1442 6.58086C55.1442 6.2577 55.3972 6.02185 55.7212 6.02185C56.0444 6.02185 56.3063 6.2577 56.2974 6.58086C56.2974 6.92203 56.0535 7.14887 55.7032 7.14887ZM56.1929 12.0935H55.2495V7.8483H56.1929V12.0935ZM58.8124 12.0935H57.869V5.90033H58.8124V12.0935ZM62.8218 12.0935L62.7515 11.6046H62.7255C62.4374 11.998 62.0179 12.1898 61.485 12.1898C60.7253 12.1898 60.1834 11.6569 60.1834 10.9403C60.1834 9.89252 61.0916 9.35062 62.6642 9.35062V9.2723C62.6642 8.71329 62.3671 8.43334 61.782 8.43334C61.3625 8.43334 60.9953 8.53866 60.673 8.7484L60.4804 8.12728C60.8738 7.88243 61.3626 7.76001 61.9396 7.76001C63.0486 7.76001 63.6084 8.34512 63.6084 9.51625V11.0798C63.6084 11.5083 63.6274 11.8405 63.6688 12.0934H62.8218V12.0935ZM62.6903 9.97901C61.6416 9.97901 61.1178 10.2329 61.1178 10.8351C61.1178 11.2807 61.3886 11.4985 61.764 11.4985C62.2447 11.4985 62.6903 11.1321 62.6903 10.6343V9.97901ZM67.4307 12.1898C66.8285 12.1898 66.3837 11.936 66.0957 11.4382H66.0768L66.0228 12.0935H65.2189C65.245 11.7533 65.254 11.368 65.254 10.9494V5.90033H66.1983V8.46942H66.2163C66.4962 7.99773 66.9491 7.76189 67.5702 7.76189C68.5928 7.76189 69.3093 8.63595 69.3093 9.9106C69.3093 11.2284 68.5136 12.1898 67.4307 12.1898ZM67.2389 8.50273C66.6961 8.50273 66.1993 8.97442 66.1993 9.62974V10.3724C66.1993 10.9575 66.6457 11.4382 67.2228 11.4382C67.9294 11.4382 68.3498 10.8621 68.3498 9.9448C68.3488 9.08874 67.9113 8.50273 67.2389 8.50273ZM71.647 12.0935H70.7046V5.90033H71.647V12.0935ZM76.7826 10.1978H73.9507C73.9696 11.0016 74.5006 11.4553 75.2873 11.4553C75.7068 11.4553 76.0912 11.3851 76.4315 11.2546L76.5782 11.9099C76.1767 12.0845 75.705 12.1718 75.155 12.1718C73.8264 12.1718 73.0405 11.3329 73.0405 10.0321C73.0405 8.73047 73.8453 7.75198 75.0488 7.75198C76.1318 7.75198 76.814 8.55584 76.814 9.77017C76.8176 9.9358 76.8095 10.0843 76.7826 10.1978ZM75.9175 9.52532C75.9175 8.87 75.5852 8.40731 74.9822 8.40731C74.4402 8.40731 74.0136 8.879 73.9506 9.52532H75.9175ZM82.5004 12.1898C81.26 12.1898 80.4561 11.2636 80.4561 10.006C80.4561 8.69536 81.2771 7.76099 82.5715 7.76099C83.793 7.76099 84.6158 8.64316 84.6158 9.9367C84.6159 11.2636 83.7678 12.1898 82.5004 12.1898ZM82.5364 8.45052C81.855 8.45052 81.4185 9.08784 81.4185 9.97901C81.4185 10.8531 81.8641 11.4904 82.5275 11.4904C83.1909 11.4904 83.6355 10.809 83.6355 9.96101C83.6364 9.09684 83.1998 8.45052 82.5364 8.45052ZM89.6874 12.0935H88.745V9.65585C88.745 8.90511 88.4568 8.52883 87.8889 8.52883C87.3299 8.52883 86.9446 9.00953 86.9446 9.56853V12.0935H86.0022V9.06174C86.0022 8.68636 85.9922 8.28399 85.967 7.8474H86.797L86.8411 8.50273H86.8672C87.1192 8.04904 87.636 7.76009 88.2121 7.76009C89.1023 7.76009 89.6874 8.44152 89.6874 9.55053V12.0935H89.6874ZM95.8599 8.55584H94.8219V10.6172C94.8219 11.142 95.0048 11.404 95.3711 11.404C95.5376 11.404 95.678 11.386 95.7905 11.3599L95.8167 12.0764C95.633 12.1467 95.3873 12.1817 95.0839 12.1817C94.3404 12.1817 93.8966 11.7713 93.8966 10.6964V8.55584H93.2773V7.8483H93.8966V7.07055L94.8219 6.7906V7.8474H95.8599V8.55584ZM100.856 12.0935H99.9115V9.67385C99.9115 8.91411 99.6235 8.52973 99.0555 8.52973C98.5667 8.52973 98.1131 8.8619 98.1131 9.53433V12.0935H97.1688V5.90033H98.1131V8.45052H98.1311C98.4281 7.98783 98.8566 7.76009 99.4066 7.76009C100.306 7.76009 100.856 8.45862 100.856 9.56853V12.0935ZM105.676 10.1978H102.845C102.863 11.0016 103.394 11.4553 104.181 11.4553C104.602 11.4553 104.985 11.3851 105.325 11.2546L105.473 11.9099C105.071 12.0845 104.599 12.1718 104.049 12.1718C102.72 12.1718 101.934 11.3329 101.934 10.0321C101.934 8.73047 102.739 7.75198 103.943 7.75198C105.026 7.75198 105.708 8.55584 105.708 9.77017C105.711 9.9358 105.702 10.0843 105.676 10.1978ZM104.811 9.52532C104.811 8.87 104.48 8.40731 103.877 8.40731C103.334 8.40731 102.907 8.879 102.845 9.52532H104.811Z" fill="white"/>
</g>
<defs>
<linearGradient id="paint0_linear_739_2269" x1="89.853" y1="36.0963" x2="89.853" y2="3.64872" gradientUnits="userSpaceOnUse">
<stop stop-color="#1A1A1A" stop-opacity="0.1"/>
<stop offset="0.123" stop-color="#212121" stop-opacity="0.151"/>
<stop offset="0.308" stop-color="#353535" stop-opacity="0.227"/>
<stop offset="0.532" stop-color="#575757" stop-opacity="0.318"/>
<stop offset="0.783" stop-color="#858585" stop-opacity="0.421"/>
<stop offset="1" stop-color="#B3B3B3" stop-opacity="0.51"/>
</linearGradient>
<clipPath id="clip0_739_2269">
<rect width="121.457" height="36" fill="white" transform="translate(0.77124)"/>
</clipPath>
</defs>
</svg>
