<svg width="123" height="36" viewBox="0 0 123 36" fill="none" xmlns="http://www.w3.org/2000/svg">
<g clip-path="url(#clip0_739_2224)">
<path d="M5.72246 0H117.2C119.919 0 122.129 1.9368 122.129 4.32V31.68C122.129 34.0632 119.919 36 117.2 36H5.72246C3.00329 36 0.793457 34.0632 0.793457 31.68V4.32C0.793457 1.9368 3.00329 0 5.72246 0Z" fill="white"/>
<path d="M15.5968 17.28C15.5968 17.28 7.22577 13.212 6.73287 12.9744C6.23997 12.7368 5.74707 12.8808 5.74707 13.3776V30.9096C5.74707 31.284 6.10031 31.4424 6.52749 31.2408C6.95467 31.032 15.5968 26.8344 15.5968 26.8344C15.5968 26.8344 16.7716 26.2656 17.3549 25.9776C18.2996 25.5168 20.189 24.6024 20.189 24.6024C20.189 24.6024 24.0911 22.7088 24.6087 22.4568C25.1262 22.2048 25.0769 21.8592 24.6415 21.6648C24.2062 21.4704 20.1972 19.5048 20.1972 19.5048L15.5968 17.28Z" fill="url(#paint0_linear_739_2224)"/>
<path d="M17.1413 22.032L6.13316 12.888C5.8785 12.9384 5.72241 13.1112 5.72241 13.392V30.888C5.72241 31.1256 5.82921 31.2696 5.96886 31.32L17.1413 22.032Z" fill="url(#paint1_linear_739_2224)"/>
<mask id="mask0_739_2224" style="mask-type:alpha" maskUnits="userSpaceOnUse" x="5" y="12" width="13" height="20">
<path d="M17.1413 22.032L6.13316 12.888C5.8785 12.9384 5.72241 13.1112 5.72241 13.392V30.888C5.72241 31.1256 5.82921 31.2696 5.96886 31.32L17.1413 22.032Z" fill="white"/>
</mask>
<g mask="url(#mask0_739_2224)">
</g>
<mask id="mask1_739_2224" style="mask-type:alpha" maskUnits="userSpaceOnUse" x="5" y="22" width="16" height="10">
<path d="M6.41935 31.2699L12.786 28.2027C14.355 27.4395 15.5955 26.8347 15.5955 26.8347L20.2206 24.6531L17.1399 22.0323L5.96753 31.3203C6.09075 31.3563 6.31256 31.3347 6.48507 31.2627" fill="white"/>
</mask>
<g mask="url(#mask1_739_2224)">
<path d="M15.5792 17.2803C15.5628 17.3163 7.19168 13.2411 6.70699 13.0323C6.21409 12.7587 5.72119 12.9099 5.72119 13.3923V30.9603C5.72119 31.3491 6.07444 31.5075 6.46054 31.3203C6.9288 31.0899 15.5628 26.8923 15.5792 26.8563L20.1796 24.6243C20.1549 24.6531 24.0489 22.7595 24.5335 22.5363C25.0922 22.2555 25.0347 21.9099 24.6157 21.7443C24.1639 21.5139 20.1549 19.5483 20.1796 19.5123L15.5792 17.2803Z" fill="url(#paint2_linear_739_2224)"/>
</g>
<path d="M6.71477 12.9672C6.50118 12.8736 6.29581 12.8448 6.12329 12.8808L17.1396 22.0392L20.1873 19.512L15.5952 17.28C15.5952 17.28 11.2659 15.1776 8.65351 13.9104L6.71477 12.9672Z" fill="url(#paint3_linear_739_2224)"/>
<mask id="mask2_739_2224" style="mask-type:alpha" maskUnits="userSpaceOnUse" x="6" y="12" width="15" height="11">
<path d="M6.71477 12.9672C6.50118 12.8736 6.29581 12.8448 6.12329 12.8808L17.1396 22.0392L20.1873 19.512L15.5952 17.28C15.5952 17.28 11.2659 15.1776 8.65351 13.9104L6.71477 12.9672Z" fill="white"/>
</mask>
<g mask="url(#mask2_739_2224)">
</g>
<path d="M83.8965 25.1208L82.9846 25.8768C82.771 25.9776 82.5657 26.1 82.3603 26.1792C81.7277 26.4312 81.087 26.496 80.5119 26.496C79.904 26.496 78.9511 26.46 77.9817 25.8408C76.6344 25.0056 76.043 23.5584 76.043 22.3056C76.043 19.7064 78.4417 18.432 80.4051 18.432C81.087 18.432 81.7935 18.5832 82.3603 18.9C83.3132 19.4544 83.5597 20.1744 83.6911 20.5632L79.2222 22.1544L77.7599 22.2552C78.2364 24.3864 79.8711 25.6248 81.6784 25.6248C82.5821 25.6248 83.2475 25.3656 83.8636 25.0992C83.8636 25.0992 83.9869 25.0416 83.8965 25.1208ZM81.1691 20.844C81.5306 20.7288 81.7113 20.628 81.7113 20.3904C81.7113 19.7136 80.8652 18.936 79.8465 18.936C79.0989 18.936 77.686 19.4616 77.686 21.2832C77.686 21.5712 77.727 21.8736 77.7435 22.176L81.1691 20.844Z" fill="black"/>
<path d="M74.5641 25.0272C74.5641 25.6752 74.6956 25.776 75.3199 25.8264C75.6485 25.8624 75.9689 25.8768 76.2893 25.9056L75.591 26.2728H72.2475C72.6829 25.7688 72.765 25.7184 72.765 25.3872V25.0128L72.7568 15.0768H71.2781L72.6993 14.472H75.4103C74.8188 14.7744 74.6463 14.9544 74.5723 15.5376L74.5641 25.0272Z" fill="black"/>
<path d="M69.3805 19.2528C69.8159 19.5696 70.7196 20.2392 70.7196 21.5064C70.7196 22.7448 69.9309 23.328 69.1341 23.8824C68.8876 24.0984 68.6001 24.336 68.6001 24.7032C68.6001 25.0704 68.8876 25.272 69.093 25.4232L69.7749 25.8912C70.6046 26.5104 71.3604 27.0792 71.3604 28.2312C71.3604 29.8008 69.6352 31.392 66.3821 31.392C63.6383 31.392 62.3157 30.24 62.3157 29.0016C62.3157 28.3968 62.6525 27.5472 63.7779 26.964C64.9527 26.3304 66.5382 26.244 67.3925 26.1936C67.1296 25.8912 66.8257 25.5744 66.8257 25.056C66.8257 24.7752 66.9243 24.6024 67.0146 24.4008C66.8093 24.4152 66.5957 24.4368 66.4067 24.4368C64.4023 24.4368 63.2686 23.112 63.2686 21.8088C63.2686 21.0384 63.6629 20.1888 64.4844 19.5696C65.5606 18.7848 66.8503 18.648 67.869 18.648H71.7711L70.5553 19.2528H69.3805ZM68.0497 26.6616C67.8936 26.64 67.8033 26.64 67.6143 26.64C67.4418 26.64 66.4067 26.676 65.6099 26.9136C65.1909 27.0504 63.9669 27.4608 63.9669 28.6704C63.9669 29.88 65.2813 30.7512 67.3268 30.7512C69.1587 30.7512 70.1281 29.9664 70.1281 28.9152C70.1281 28.0368 69.4956 27.576 68.0497 26.6616ZM68.5837 23.436C69.0191 23.0544 69.0602 22.5216 69.0602 22.2192C69.0602 21.0168 68.2551 19.152 66.686 19.152C66.2014 19.152 65.6674 19.368 65.3634 19.7064C65.043 20.052 64.9527 20.5056 64.9527 20.9376C64.9527 22.0536 65.692 23.904 67.3104 23.904C67.7786 23.904 68.288 23.7024 68.5837 23.436Z" fill="black"/>
<path d="M57.5838 26.496C54.5689 26.496 52.9587 24.408 52.9587 22.5216C52.9587 20.3184 54.9878 18.432 57.8713 18.432C60.6561 18.432 62.4059 20.3688 62.4059 22.4064C62.4059 24.3936 60.6808 26.496 57.5838 26.496ZM59.9414 25.1352C60.4015 24.5952 60.5165 23.9184 60.5165 23.2632C60.5165 21.7728 59.7196 18.936 57.3537 18.936C56.7294 18.936 56.0969 19.152 55.6368 19.512C54.8975 20.1024 54.7578 20.844 54.7578 21.5712C54.7578 23.2416 55.6861 25.992 57.9945 25.992C58.7503 25.992 59.5061 25.6752 59.9414 25.1352Z" fill="black"/>
<path d="M47.4793 26.496C44.4644 26.496 42.8542 24.408 42.8542 22.5216C42.8542 20.3184 44.8834 18.432 47.7668 18.432C50.5517 18.432 52.3015 20.3688 52.3015 22.4064C52.3015 24.3936 50.5763 26.496 47.4793 26.496ZM49.837 25.1352C50.297 24.5952 50.412 23.9184 50.412 23.2632C50.412 21.7728 49.607 18.936 47.2493 18.936C46.6167 18.936 45.9924 19.152 45.5323 19.512C44.7848 20.1024 44.6533 20.844 44.6533 21.5712C44.6533 23.2416 45.5898 25.992 47.89 25.992C48.6458 25.992 49.4016 25.6752 49.837 25.1352Z" fill="black"/>
<path d="M41.6056 25.9992L39.0507 26.5176C38.0156 26.6616 37.0874 26.7912 36.1016 26.7912C31.1726 26.784 29.2996 23.5872 29.2996 21.0816C29.2996 18.0288 31.9612 15.192 36.5123 15.192C37.4735 15.192 38.4018 15.3144 39.2479 15.5232C40.5869 15.8544 41.2113 16.2648 41.6056 16.5024L40.1187 17.748L39.4943 17.8704L39.938 17.244C39.33 16.7256 38.221 15.7608 36.118 15.7608C33.3003 15.7608 31.1726 17.6472 31.1726 20.4048C31.1726 23.364 33.596 26.1504 37.4899 26.1504C38.6318 26.1504 39.2232 25.9488 39.7572 25.7616V23.22L37.0627 23.3496L38.4921 22.6728H42.2792L41.8192 23.0688C41.696 23.1624 41.6795 23.1912 41.6385 23.3208C41.622 23.4648 41.6056 23.9184 41.6056 24.084V25.9992Z" fill="black"/>
<path d="M89.4087 25.1928V29.448H88.4475V18.6264H89.4087V19.8576C90.033 19.0584 91.1831 18.432 92.5057 18.432C94.888 18.432 96.4981 20.0232 96.4981 22.536C96.4981 25.0344 94.8962 26.6544 92.5057 26.6544C91.257 26.6544 90.1316 26.0856 89.4087 25.1928ZM95.5123 22.6008C95.5123 20.6856 94.3869 19.224 92.3825 19.224C91.142 19.224 89.9508 20.088 89.4333 20.844V24.3432C89.9508 25.0992 91.142 25.992 92.3825 25.992C94.3869 25.992 95.5123 24.516 95.5123 22.6008Z" fill="black"/>
<path d="M97.8127 15.624H98.7986V26.496H97.8127V15.624Z" fill="black"/>
<path d="M109.519 28.6992C109.724 28.7784 110.078 28.8288 110.299 28.8288C110.891 28.8288 111.293 28.62 111.663 27.8712L112.361 26.4744L108.574 18.576H109.65L112.895 25.4232L116.116 18.576H117.2L112.583 28.1304C112.107 29.1168 111.351 29.592 110.316 29.592C110.004 29.592 109.593 29.5416 109.355 29.4768L109.519 28.6992Z" fill="black"/>
<path d="M106.8 26.4888C106.734 26.2152 106.685 25.9776 106.652 25.776C106.619 25.5744 106.603 25.3728 106.603 25.164C106.274 25.5888 105.806 25.9488 105.198 26.2296C104.598 26.5104 104.023 26.6472 103.243 26.6472C102.298 26.6472 101.567 26.4456 101.049 26.028C100.532 25.6176 100.269 25.056 100.269 24.3504C100.269 23.6448 100.647 23.0688 101.402 22.6296C102.158 22.1904 103.136 21.9672 104.344 21.9672H106.594V20.988C106.594 20.4264 106.373 19.98 105.937 19.6632C105.502 19.3392 104.886 19.1808 104.089 19.1808C103.358 19.1808 102.766 19.332 102.314 19.62C101.871 19.9152 101.641 20.2824 101.641 20.7216H100.655L100.638 20.6784C100.606 20.0808 100.91 19.5624 101.575 19.1088C102.232 18.6552 103.087 18.432 104.146 18.432C105.198 18.432 106.052 18.6552 106.693 19.1016C107.334 19.5408 107.654 20.1816 107.654 21.0096V24.8976C107.654 25.1784 107.671 25.4448 107.712 25.7112C107.753 25.9776 107.819 26.2368 107.901 26.4888H106.8ZM103.366 25.92C104.187 25.92 104.779 25.7544 105.379 25.4376C105.978 25.1208 106.381 24.7032 106.594 24.1992V22.68H104.327C103.464 22.68 102.75 22.8456 102.183 23.1912C101.616 23.5296 101.337 23.94 101.337 24.4224C101.337 24.876 101.517 25.236 101.879 25.5096C102.249 25.7832 102.742 25.92 103.366 25.92Z" fill="black"/>
<path d="M28.9709 8.3016C28.9709 6.75361 30.3839 5.75281 32.1419 5.75281C33.3167 5.75281 34.0889 6.21361 34.5736 6.77521L33.711 7.17841C33.3824 6.81121 32.8156 6.52321 32.1419 6.52321C30.9508 6.52321 30.0553 7.2648 30.0553 8.3016C30.0635 9.3312 30.9508 10.08 32.1419 10.08C32.7581 10.08 33.3002 9.8496 33.5713 9.6336V8.8776H31.764V8.1144H34.6229V9.9504C34.0314 10.4904 33.1852 10.8504 32.1419 10.8504C30.3839 10.8576 28.9709 9.8496 28.9709 8.3016Z" fill="black"/>
<path d="M35.9949 10.7856V5.83203H40.1928V6.59523H37.071V7.86963H40.127V8.64003H37.071V10.0224H40.1928V10.7856H35.9949Z" fill="black"/>
<path d="M43.0432 10.7856V6.59523H41.2195V5.83203H45.9266V6.59523H44.1029V10.7856H43.0432Z" fill="black"/>
<path d="M49.6973 5.83203H50.7241V10.7856H49.6973V5.83203Z" fill="black"/>
<path d="M53.6653 10.7856V6.59523H51.8416V5.83203H56.5487V6.59523H54.725V10.7856H53.6653Z" fill="black"/>
<path d="M60.0647 8.30881C60.0647 6.84001 61.3545 5.76001 63.1946 5.76001C65.0183 5.76001 66.3163 6.84001 66.3163 8.30881C66.3163 9.77762 65.0101 10.8576 63.1946 10.8576C61.3545 10.8576 60.0647 9.77762 60.0647 8.30881ZM65.1991 8.26561C65.1991 7.25761 64.4104 6.50161 63.1864 6.50161C61.9541 6.50161 61.1737 7.25761 61.1737 8.26561C61.1737 9.26642 61.9541 10.0296 63.1864 10.0296C64.4104 10.0296 65.1991 9.27362 65.1991 8.26561Z" fill="black"/>
<path d="M71.7137 10.7856L68.5673 7.24323V10.7856H67.5076V5.83203H68.5919L71.6726 9.26643V5.83203H72.7323V10.7856H71.7137Z" fill="black"/>
</g>
<defs>
<linearGradient id="paint0_linear_739_2224" x1="10.2879" y1="18.6919" x2="16.0719" y2="28.3765" gradientUnits="userSpaceOnUse">
<stop stop-color="#FF177B"/>
<stop offset="1" stop-color="#FFEC73"/>
</linearGradient>
<linearGradient id="paint1_linear_739_2224" x1="13.2573" y1="6.12979" x2="3.20909" y2="30.476" gradientUnits="userSpaceOnUse">
<stop stop-color="#064AA2"/>
<stop offset="1" stop-color="#63FFD4"/>
</linearGradient>
<linearGradient id="paint2_linear_739_2224" x1="17.0507" y1="16.5999" x2="2.76527" y2="26.3505" gradientUnits="userSpaceOnUse">
<stop stop-color="#FF4521"/>
<stop offset="1" stop-color="#8A33DB"/>
</linearGradient>
<linearGradient id="paint3_linear_739_2224" x1="8.20632" y1="9.94618" x2="12.5782" y2="22.912" gradientUnits="userSpaceOnUse">
<stop stop-color="#00A3B5"/>
<stop offset="1" stop-color="#D6FFA1"/>
</linearGradient>
<clipPath id="clip0_739_2224">
<rect x="0.77124" width="121.38" height="36" rx="4" fill="white"/>
</clipPath>
</defs>
</svg>
