<svg width="72" height="72" viewBox="0 0 72 72" fill="none" xmlns="http://www.w3.org/2000/svg">
<path d="M18 6C14.7172 6 12 8.71724 12 12V60C12 63.2828 14.7172 66 18 66H54C57.2828 66 60 63.2828 60 60V19.7578L46.2422 6H18ZM18 12H42V24H54V60H18V12ZM27 30C25.3431 30 24 31.3431 24 33C24 34.6569 25.3431 36 27 36H45C46.6569 36 48 34.6569 48 33C48 31.3431 46.6569 30 45 30H27ZM27 39C25.3431 39 24 40.3431 24 42C24 43.6569 25.3431 45 27 45H45C46.6569 45 48 43.6569 48 42C48 40.3431 46.6569 39 45 39H27ZM27 48C25.3431 48 24 49.3431 24 51C24 52.6569 25.3431 54 27 54H36C37.6569 54 39 52.6569 39 51C39 49.3431 37.6569 48 36 48H27Z" fill="#828282"/>
</svg>
