<svg width="48" height="60" viewBox="0 0 48 60" fill="none" xmlns="http://www.w3.org/2000/svg">
<path d="M6 0C2.71724 0 0 2.71724 0 6V54C0 57.2828 2.71724 60 6 60H42C45.2828 60 48 57.2828 48 54V13.7578L34.2422 0H6ZM6 6H30V18H42V54H6V6ZM15 24C13.3431 24 12 25.3431 12 27C12 28.6569 13.3431 30 15 30H33C34.6569 30 36 28.6569 36 27C36 25.3431 34.6569 24 33 24H15ZM15 33C13.3431 33 12 34.3431 12 36C12 37.6569 13.3431 39 15 39H33C34.6569 39 36 37.6569 36 36C36 34.3431 34.6569 33 33 33H15ZM15 42C13.3431 42 12 43.3431 12 45C12 46.6569 13.3431 48 15 48H24C25.6569 48 27 46.6569 27 45C27 43.3431 25.6569 42 24 42H15Z" fill="#828282"/>
</svg>
