<svg width="86" height="85" viewBox="0 0 86 85" fill="none" xmlns="http://www.w3.org/2000/svg">
<path d="M46.4874 19.5111C46.9418 19.5015 47.3478 19.6747 47.7055 20.0307C47.973 20.2969 48.1341 20.5727 48.1889 20.8582C48.2469 21.1469 48.2147 21.4355 48.0922 21.7242C47.973 22.0161 47.7813 22.2967 47.517 22.5662L45.0808 20.1413C45.5674 19.734 46.0363 19.5239 46.4874 19.5111Z" fill="#828282"/>
<path d="M65.571 38.5055C66.0254 38.4959 66.4314 38.6691 66.7891 39.0251C67.0566 39.2913 67.2177 39.5672 67.2725 39.8526C67.3305 40.1413 67.2983 40.43 67.1758 40.7186C67.0566 41.0105 66.8649 41.2912 66.6006 41.5606L64.1644 39.1358C64.651 38.7284 65.1199 38.5183 65.571 38.5055Z" fill="#828282"/>
<path d="M70.1583 49.0467C69.6781 49.1269 69.1947 48.9248 68.7081 48.4405C68.2924 48.0268 68.1313 47.5585 68.2248 47.0357C68.3247 46.5129 68.6695 45.958 69.2592 45.371C69.8489 44.784 70.4144 44.4328 70.9558 44.3174C71.5036 44.2019 71.9822 44.3478 72.3914 44.7552C72.9038 45.2652 73.0956 45.7768 72.9667 46.2899C72.841 46.7999 72.4785 47.3532 71.8791 47.9498L71.7292 48.0989C71.1621 48.6506 70.6384 48.9665 70.1583 49.0467Z" fill="#828282"/>
<path fill-rule="evenodd" clip-rule="evenodd" d="M85.7994 7.94199C85.7879 3.53647 82.1845 -0.0224967 77.7584 0.000107077L0 0L86 85L85.7994 7.94199ZM37.6949 19.2176L47.2318 14.6422L46.0427 13.4587L40.1262 16.3742C39.949 16.4608 39.7428 16.5699 39.5075 16.7014C39.2723 16.8329 39.037 16.9676 38.8018 17.1055C38.5698 17.2466 38.3684 17.3765 38.1976 17.4952C38.3168 17.3252 38.4457 17.1231 38.5843 16.889C38.7261 16.6581 38.8614 16.4239 38.9903 16.1866C39.1224 15.9524 39.2304 15.7488 39.3142 15.5756L42.2531 9.68671L41.064 8.50317L36.4671 17.9956L37.6949 19.2176ZM49.494 20.6946C49.349 20.159 49.038 19.6538 48.5611 19.1791C48.0713 18.6916 47.5331 18.374 46.9466 18.2265C46.3602 18.079 45.7559 18.1126 45.134 18.3275C44.5121 18.5424 43.9014 18.9482 43.302 19.5448C42.6994 20.1446 42.3063 20.7572 42.1226 21.3826C41.9421 22.0113 41.947 22.6255 42.1371 23.2253C42.3337 23.8251 42.6946 24.3864 43.2198 24.9092C43.6065 25.2941 43.9675 25.5956 44.3026 25.8137C44.6377 26.0318 45.0019 26.2114 45.395 26.3525L46.3183 25.4336C45.8993 25.2732 45.5191 25.0904 45.1775 24.8851C44.8424 24.6799 44.504 24.4072 44.1624 24.0672C43.6823 23.5893 43.4486 23.0777 43.4615 22.5325C43.4776 21.9904 43.7387 21.4548 44.2446 20.9256L47.8167 24.481L48.4258 23.8748C48.9285 23.3744 49.2685 22.8532 49.4457 22.3112C49.6229 21.7691 49.639 21.2303 49.494 20.6946ZM55.1253 25.7415C55.0287 25.6261 54.9352 25.5234 54.845 25.4336C54.6001 25.1898 54.3262 25.0134 54.0232 24.9044C53.7268 24.7953 53.4206 24.7408 53.1048 24.7408C52.789 24.7408 52.4829 24.7825 52.1864 24.8659L52.1332 24.813L52.9211 23.7208L52.0317 22.8356L46.6808 28.1615L47.8216 29.297L50.6203 26.5113C50.8845 26.2483 51.1568 26.0575 51.4372 25.9388C51.7175 25.8201 51.9947 25.7656 52.2686 25.7752C52.5457 25.7816 52.8084 25.8442 53.0565 25.9628C53.3078 26.0783 53.535 26.2371 53.738 26.4391C53.8154 26.5161 53.8976 26.6075 53.9846 26.7134C54.0748 26.8224 54.1441 26.9203 54.1924 27.0069L55.3622 26.0542C55.301 25.9612 55.222 25.857 55.1253 25.7415ZM52.0897 33.5452L57.4407 28.2193L56.3048 27.0886L50.9538 32.4146L52.0897 33.5452ZM59.2388 26.2082C59.2066 25.9901 59.1035 25.7944 58.9295 25.6212C58.749 25.4416 58.5492 25.3358 58.3301 25.3037C58.1142 25.2748 57.8918 25.3743 57.663 25.602C57.4375 25.8265 57.3376 26.0478 57.3634 26.2659C57.3956 26.484 57.5019 26.6829 57.6824 26.8625C57.8564 27.0357 58.053 27.1384 58.2721 27.1704C58.4977 27.2025 58.7232 27.1063 58.9488 26.8818C59.1776 26.654 59.2743 26.4295 59.2388 26.2082ZM59.5772 32.0682L60.8775 33.3624L61.7427 32.5012L60.4424 31.207L60.805 30.8461C61.1143 30.5382 61.4092 30.3634 61.6895 30.3217C61.9731 30.2832 62.2438 30.3923 62.5016 30.6489C62.6563 30.8029 62.7852 30.9632 62.8883 31.13C62.9947 31.2936 63.0849 31.4475 63.159 31.5919L64.3143 31.029C64.2273 30.8397 64.1016 30.6248 63.9372 30.3843C63.7761 30.1405 63.5731 29.8967 63.3282 29.653C62.9544 29.2809 62.5725 29.0195 62.1826 28.8688C61.7991 28.718 61.4011 28.7036 60.9887 28.8255C60.5794 28.9506 60.1476 29.2392 59.6932 29.6915L59.321 30.0619L58.1126 29.5231L57.5664 30.0667L58.4413 30.9376L53.9556 35.4023L55.0915 36.5329L59.5772 32.0682ZM58.4364 39.8622L63.7874 34.5363L62.6515 33.4057L57.3005 38.7316L58.4364 39.8622ZM65.5855 32.5252C65.5533 32.3071 65.4502 32.1115 65.2762 31.9383C65.0957 31.7587 64.8959 31.6528 64.6768 31.6207C64.4609 31.5919 64.2385 31.6913 64.0097 31.919C63.7842 32.1436 63.6843 32.3649 63.7101 32.583C63.7423 32.8011 63.8486 32.9999 64.0291 33.1796C64.2031 33.3528 64.3997 33.4554 64.6188 33.4875C64.8444 33.5195 65.0699 33.4233 65.2955 33.1988C65.5243 32.9711 65.621 32.7466 65.5855 32.5252ZM68.5776 39.689C68.4326 39.1534 68.1216 38.6482 67.6447 38.1735C67.1549 37.686 66.6167 37.3685 66.0302 37.2209C65.4437 37.0734 64.8395 37.1071 64.2176 37.322C63.5957 37.5369 62.985 37.9426 62.3856 38.5392C61.783 39.139 61.3899 39.7516 61.2062 40.377C61.0257 41.0057 61.0305 41.6199 61.2207 42.2197C61.4172 42.8195 61.7782 43.3808 62.3034 43.9036C62.6901 44.2885 63.0511 44.59 63.3862 44.8081C63.7213 45.0262 64.0855 45.2058 64.4786 45.347L65.4019 44.428C64.9829 44.2677 64.6027 44.0848 64.2611 43.8796C63.926 43.6743 63.5876 43.4016 63.246 43.0617C62.7659 42.5838 62.5322 42.0722 62.5451 41.5269C62.5612 40.9848 62.8223 40.4492 63.3282 39.92L66.9003 43.4754L67.5094 42.8692C68.0121 42.3689 68.3521 41.8476 68.5293 41.3056C68.7065 40.7635 68.7226 40.2247 68.5776 39.689ZM66.6248 46.8192C66.5475 47.6659 66.8278 48.4068 67.4659 49.0419C67.7398 49.3145 68.0137 49.5134 68.2876 49.6385C68.5647 49.7668 68.837 49.8422 69.1045 49.8646C69.3784 49.8871 69.641 49.8694 69.8924 49.8117L69.9407 49.8598L69.4139 50.7884L70.3033 51.6736L77.8246 44.1875L76.6838 43.052L74.76 44.9669C74.5989 45.1272 74.4329 45.3117 74.2621 45.5202C74.0978 45.7286 73.9737 45.8906 73.8899 46.0061L73.8367 45.9532C73.8851 45.6998 73.8963 45.4384 73.8706 45.1689C73.848 44.9027 73.7707 44.6333 73.6385 44.3607C73.5097 44.0848 73.3099 43.8122 73.0392 43.5428C72.3979 42.9045 71.6454 42.6238 70.7818 42.7008C69.9214 42.781 69.032 43.2782 68.1136 44.1923C67.2048 45.0968 66.7086 45.9724 66.6248 46.8192Z" fill="#828282"/>
</svg>
